SplineFontDB: 3.2
FontName: VerticalBytes7BitsB64
FullName: VerticalBytes7BitsB64
FamilyName: VerticalBytes7BitsB64
Weight: Regular
Copyright: Copyright (c) 2025, EloiStree
UComments: "2025-7-27: Created with FontForge (http://fontforge.org)"
Version: 001.000
ItalicAngle: 0
UnderlinePosition: -100
UnderlineWidth: 50
Ascent: 819
Descent: 205
InvalidEm: 0
LayerCount: 2
Layer: 0 0 "Back" 1
Layer: 1 0 "Fore" 0
XUID: [1021 438 763870636 24502]
StyleMap: 0x0000
FSType: 0
OS2Version: 0
OS2_WeightWidthSlopeOnly: 0
OS2_UseTypoMetrics: 1
CreationTime: 1753643378
ModificationTime: 1753970641
PfmFamily: 17
TTFWeight: 400
TTFWidth: 5
LineGap: 90
VLineGap: 0
OS2TypoAscent: 0
OS2TypoAOffset: 1
OS2TypoDescent: 0
OS2TypoDOffset: 1
OS2TypoLinegap: 90
OS2WinAscent: 0
OS2WinAOffset: 1
OS2WinDescent: 0
OS2WinDOffset: 1
HheadAscent: 0
HheadAOffset: 1
HheadDescent: 0
HheadDOffset: 1
OS2Vendor: 'PfEd'
MarkAttachClasses: 1
DEI: 91125
LangName: 1033
Encoding: ISO8859-1
UnicodeInterp: none
NameList: AGL For New Fonts
DisplaySize: -48
AntiAlias: 1
FitToEm: 0
WinInfo: 0 27 14
BeginPrivate: 0
EndPrivate
TeXData: 1 0 0 128974 64487 42991 444596 1048576 42991 783286 444596 497025 792723 393216 433062 380633 303038 157286 324010 404750 52429 2506097 1059062 262144
BeginChars: 256 127

StartChar: uni0000
Encoding: 0 0 0
Width: 116
VWidth: 942
Flags: HW
LayerCount: 2
Fore
SplineSet
116 88 m 1
 6 88 l 1
 6 198 l 1
 116 198 l 1
 116 88 l 1
116 201 m 1
 6 201 l 1
 6 311 l 1
 116 311 l 1
 116 201 l 1
116 314 m 1
 6 314 l 1
 6 424 l 1
 116 424 l 1
 116 314 l 1
116 427 m 1
 6 427 l 1
 6 537 l 1
 116 537 l 1
 116 427 l 1
116 539 m 1
 6 539 l 1
 6 650 l 1
 116 650 l 1
 116 539 l 1
116 653 m 1
 6 653 l 1
 6 763 l 1
 116 763 l 1
 116 653 l 1
EndSplineSet
EndChar

StartChar: one
Encoding: 49 49 2
Width: 116
VWidth: 973
Flags: HW
LayerCount: 2
Fore
SplineSet
116 684 m 1
 6 684 l 1
 6 794 l 1
 116 794 l 1
 116 684 l 1
EndSplineSet
EndChar

StartChar: two
Encoding: 50 50 3
Width: 116
VWidth: 961
Flags: HW
LayerCount: 2
Fore
SplineSet
116 558 m 1
 6 558 l 1
 6 669 l 1
 116 669 l 1
 116 558 l 1
EndSplineSet
EndChar

StartChar: three
Encoding: 51 51 4
Width: 116
VWidth: 967
Flags: HW
LayerCount: 2
Fore
SplineSet
116 564 m 1
 6 564 l 1
 6 675 l 1
 116 675 l 1
 116 564 l 1
116 678 m 1
 6 678 l 1
 6 788 l 1
 116 788 l 1
 116 678 l 1
EndSplineSet
EndChar

StartChar: five
Encoding: 53 53 5
Width: 116
VWidth: 961
Flags: HW
LayerCount: 2
Fore
SplineSet
116 446 m 5
 6 446 l 5
 6 555 l 5
 116 555 l 5
 116 446 l 5
116 672 m 1
 6 672 l 1
 6 781 l 1
 116 781 l 1
 116 672 l 1
EndSplineSet
EndChar

StartChar: four
Encoding: 52 52 6
Width: 116
VWidth: 948
Flags: HW
LayerCount: 2
Fore
SplineSet
116 433 m 5
 6 433 l 5
 6 543 l 5
 116 543 l 5
 116 433 l 5
EndSplineSet
EndChar

StartChar: P
Encoding: 80 80 7
Width: 116
VWidth: 948
Flags: HW
LayerCount: 2
Fore
SplineSet
116 207 m 5
 6 207 l 5
 6 317 l 5
 116 317 l 5
 116 207 l 5
116 321 m 1
 6 321 l 1
 6 430 l 1
 116 430 l 1
 116 321 l 1
116 659 m 1
 6 659 l 1
 6 769 l 1
 116 769 l 1
 116 659 l 1
EndSplineSet
EndChar

StartChar: six
Encoding: 54 54 8
Width: 116
VWidth: 955
Flags: HW
LayerCount: 2
Fore
SplineSet
116 439 m 5
 6 439 l 5
 6 549 l 5
 116 549 l 5
 116 439 l 5
116 552 m 1
 6 552 l 1
 6 663 l 1
 116 663 l 1
 116 552 l 1
EndSplineSet
EndChar

StartChar: seven
Encoding: 55 55 9
Width: 116
VWidth: 961
Flags: HW
LayerCount: 2
Fore
SplineSet
116 446 m 5
 6 446 l 5
 6 555 l 5
 116 555 l 5
 116 446 l 5
116 558 m 1
 6 558 l 1
 6 669 l 1
 116 669 l 1
 116 558 l 1
116 672 m 1
 6 672 l 1
 6 781 l 1
 116 781 l 1
 116 672 l 1
EndSplineSet
EndChar

StartChar: eight
Encoding: 56 56 10
Width: 116
VWidth: 936
Flags: HW
LayerCount: 2
Fore
SplineSet
116 308 m 5
 6 308 l 5
 6 418 l 5
 116 418 l 5
 116 308 l 5
EndSplineSet
EndChar

StartChar: nine
Encoding: 57 57 11
Width: 116
VWidth: 955
Flags: HW
LayerCount: 2
Fore
SplineSet
116 327 m 5
 6 327 l 5
 6 437 l 5
 116 437 l 5
 116 327 l 5
116 665 m 1
 6 665 l 1
 6 775 l 1
 116 775 l 1
 116 665 l 1
EndSplineSet
EndChar

StartChar: A
Encoding: 65 65 12
Width: 116
VWidth: 948
Flags: HW
LayerCount: 2
Fore
SplineSet
116 321 m 5
 6 321 l 5
 6 430 l 5
 116 430 l 5
 116 321 l 5
116 546 m 1
 6 546 l 1
 6 656 l 1
 116 656 l 1
 116 546 l 1
EndSplineSet
EndChar

StartChar: B
Encoding: 66 66 13
Width: 116
VWidth: 955
Flags: HW
LayerCount: 2
Fore
SplineSet
116 327 m 5
 6 327 l 5
 6 437 l 5
 116 437 l 5
 116 327 l 5
116 552 m 1
 6 552 l 1
 6 663 l 1
 116 663 l 1
 116 552 l 1
116 665 m 1
 6 665 l 1
 6 775 l 1
 116 775 l 1
 116 665 l 1
EndSplineSet
EndChar

StartChar: C
Encoding: 67 67 14
Width: 116
VWidth: 942
Flags: HW
LayerCount: 2
Fore
SplineSet
116 314 m 5
 6 314 l 5
 6 424 l 5
 116 424 l 5
 116 314 l 5
116 427 m 1
 6 427 l 1
 6 537 l 1
 116 537 l 1
 116 427 l 1
EndSplineSet
EndChar

StartChar: D
Encoding: 68 68 15
Width: 116
VWidth: 955
Flags: HW
LayerCount: 2
Fore
SplineSet
116 327 m 5
 6 327 l 5
 6 437 l 5
 116 437 l 5
 116 327 l 5
116 439 m 1
 6 439 l 1
 6 549 l 1
 116 549 l 1
 116 439 l 1
116 665 m 1
 6 665 l 1
 6 775 l 1
 116 775 l 1
 116 665 l 1
EndSplineSet
EndChar

StartChar: E
Encoding: 69 69 16
Width: 116
VWidth: 948
Flags: HW
LayerCount: 2
Fore
SplineSet
116 321 m 5
 6 321 l 5
 6 430 l 5
 116 430 l 5
 116 321 l 5
116 433 m 1
 6 433 l 1
 6 543 l 1
 116 543 l 1
 116 433 l 1
116 546 m 1
 6 546 l 1
 6 656 l 1
 116 656 l 1
 116 546 l 1
EndSplineSet
EndChar

StartChar: F
Encoding: 70 70 17
Width: 116
VWidth: 955
Flags: HW
LayerCount: 2
Fore
SplineSet
116 327 m 5
 6 327 l 5
 6 437 l 5
 116 437 l 5
 116 327 l 5
116 439 m 1
 6 439 l 1
 6 549 l 1
 116 549 l 1
 116 439 l 1
116 552 m 1
 6 552 l 1
 6 663 l 1
 116 663 l 1
 116 552 l 1
116 665 m 1
 6 665 l 1
 6 775 l 1
 116 775 l 1
 116 665 l 1
EndSplineSet
EndChar

StartChar: G
Encoding: 71 71 18
Width: 116
VWidth: 923
Flags: HW
LayerCount: 2
Fore
SplineSet
116 182 m 5
 6 182 l 5
 6 292 l 5
 116 292 l 5
 116 182 l 5
EndSplineSet
EndChar

StartChar: H
Encoding: 72 72 19
Width: 116
VWidth: 948
Flags: HW
LayerCount: 2
Fore
SplineSet
116 207 m 5
 6 207 l 5
 6 317 l 5
 116 317 l 5
 116 207 l 5
116 659 m 1
 6 659 l 1
 6 769 l 1
 116 769 l 1
 116 659 l 1
EndSplineSet
EndChar

StartChar: I
Encoding: 73 73 20
Width: 116
VWidth: 942
Flags: HW
LayerCount: 2
Fore
SplineSet
116 201 m 5
 6 201 l 5
 6 311 l 5
 116 311 l 5
 116 201 l 5
116 539 m 1
 6 539 l 1
 6 650 l 1
 116 650 l 1
 116 539 l 1
EndSplineSet
EndChar

StartChar: J
Encoding: 74 74 21
Width: 116
VWidth: 948
Flags: HW
LayerCount: 2
Fore
SplineSet
116 207 m 5
 6 207 l 5
 6 317 l 5
 116 317 l 5
 116 207 l 5
116 546 m 1
 6 546 l 1
 6 656 l 1
 116 656 l 1
 116 546 l 1
116 659 m 1
 6 659 l 1
 6 769 l 1
 116 769 l 1
 116 659 l 1
EndSplineSet
EndChar

StartChar: K
Encoding: 75 75 22
Width: 116
VWidth: 936
Flags: HW
LayerCount: 2
Fore
SplineSet
116 195 m 5
 6 195 l 5
 6 304 l 5
 116 304 l 5
 116 195 l 5
116 421 m 1
 6 421 l 1
 6 530 l 1
 116 530 l 1
 116 421 l 1
EndSplineSet
EndChar

StartChar: L
Encoding: 76 76 23
Width: 116
VWidth: 948
Flags: HW
LayerCount: 2
Fore
SplineSet
116 207 m 5
 6 207 l 5
 6 317 l 5
 116 317 l 5
 116 207 l 5
116 433 m 1
 6 433 l 1
 6 543 l 1
 116 543 l 1
 116 433 l 1
116 659 m 1
 6 659 l 1
 6 769 l 1
 116 769 l 1
 116 659 l 1
EndSplineSet
EndChar

StartChar: M
Encoding: 77 77 24
Width: 116
VWidth: 942
Flags: HW
LayerCount: 2
Fore
SplineSet
116 201 m 5
 6 201 l 5
 6 311 l 5
 116 311 l 5
 116 201 l 5
116 427 m 1
 6 427 l 1
 6 537 l 1
 116 537 l 1
 116 427 l 1
116 539 m 1
 6 539 l 1
 6 650 l 1
 116 650 l 1
 116 539 l 1
EndSplineSet
EndChar

StartChar: N
Encoding: 78 78 25
Width: 116
VWidth: 948
Flags: HW
LayerCount: 2
Fore
SplineSet
116 207 m 5
 6 207 l 5
 6 317 l 5
 116 317 l 5
 116 207 l 5
116 433 m 1
 6 433 l 1
 6 543 l 1
 116 543 l 1
 116 433 l 1
116 546 m 1
 6 546 l 1
 6 656 l 1
 116 656 l 1
 116 546 l 1
116 659 m 1
 6 659 l 1
 6 769 l 1
 116 769 l 1
 116 659 l 1
EndSplineSet
EndChar

StartChar: O
Encoding: 79 79 26
Width: 116
VWidth: 930
Flags: HW
LayerCount: 2
Fore
SplineSet
116 188 m 5
 6 188 l 5
 6 298 l 5
 116 298 l 5
 116 188 l 5
116 302 m 1
 6 302 l 1
 6 412 l 1
 116 412 l 1
 116 302 l 1
EndSplineSet
EndChar

StartChar: k
Encoding: 107 107 27
Width: 116
VWidth: 936
Flags: HW
LayerCount: 2
Fore
SplineSet
116 82 m 5
 6 82 l 5
 6 192 l 5
 116 192 l 5
 116 82 l 5
116 308 m 1
 6 308 l 1
 6 418 l 1
 116 418 l 1
 116 308 l 1
116 421 m 1
 6 421 l 1
 6 530 l 1
 116 530 l 1
 116 421 l 1
116 533 m 1
 6 533 l 1
 6 644 l 1
 116 644 l 1
 116 533 l 1
EndSplineSet
EndChar

StartChar: j
Encoding: 106 106 28
Width: 116
VWidth: 942
Flags: HW
LayerCount: 2
Fore
SplineSet
116 88 m 5
 6 88 l 5
 6 198 l 5
 116 198 l 5
 116 88 l 5
116 314 m 1
 6 314 l 1
 6 424 l 1
 116 424 l 1
 116 314 l 1
116 427 m 1
 6 427 l 1
 6 537 l 1
 116 537 l 1
 116 427 l 1
116 653 m 1
 6 653 l 1
 6 763 l 1
 116 763 l 1
 116 653 l 1
EndSplineSet
EndChar

StartChar: i
Encoding: 105 105 29
Width: 116
VWidth: 930
Flags: HW
LayerCount: 2
Fore
SplineSet
116 76 m 5
 6 76 l 5
 6 186 l 5
 116 186 l 5
 116 76 l 5
116 302 m 1
 6 302 l 1
 6 412 l 1
 116 412 l 1
 116 302 l 1
116 414 m 1
 6 414 l 1
 6 524 l 1
 116 524 l 1
 116 414 l 1
EndSplineSet
EndChar

StartChar: h
Encoding: 104 104 30
Width: 116
VWidth: 942
Flags: HW
LayerCount: 2
Fore
SplineSet
116 88 m 5
 6 88 l 5
 6 198 l 5
 116 198 l 5
 116 88 l 5
116 314 m 1
 6 314 l 1
 6 424 l 1
 116 424 l 1
 116 314 l 1
116 539 m 1
 6 539 l 1
 6 650 l 1
 116 650 l 1
 116 539 l 1
116 653 m 1
 6 653 l 1
 6 763 l 1
 116 763 l 1
 116 653 l 1
EndSplineSet
EndChar

StartChar: g
Encoding: 103 103 31
Width: 116
VWidth: 936
Flags: HW
LayerCount: 2
Fore
SplineSet
116 82 m 5
 6 82 l 5
 6 192 l 5
 116 192 l 5
 116 82 l 5
116 308 m 1
 6 308 l 1
 6 418 l 1
 116 418 l 1
 116 308 l 1
116 533 m 1
 6 533 l 1
 6 644 l 1
 116 644 l 1
 116 533 l 1
EndSplineSet
EndChar

StartChar: e
Encoding: 101 101 32
Width: 116
VWidth: 923
Flags: HW
LayerCount: 2
Fore
SplineSet
116 70 m 5
 6 70 l 5
 6 179 l 5
 116 179 l 5
 116 70 l 5
116 296 m 1
 6 296 l 1
 6 405 l 1
 116 405 l 1
 116 296 l 1
EndSplineSet
EndChar

StartChar: f
Encoding: 102 102 33
Width: 116
VWidth: 942
Flags: HW
LayerCount: 2
Fore
SplineSet
116 88 m 5
 6 88 l 5
 6 198 l 5
 116 198 l 5
 116 88 l 5
116 314 m 1
 6 314 l 1
 6 424 l 1
 116 424 l 1
 116 314 l 1
116 653 m 1
 6 653 l 1
 6 763 l 1
 116 763 l 1
 116 653 l 1
EndSplineSet
EndChar

StartChar: d
Encoding: 100 100 34
Width: 116
VWidth: 942
Flags: HW
LayerCount: 2
Fore
SplineSet
116 88 m 5
 6 88 l 5
 6 198 l 5
 116 198 l 5
 116 88 l 5
116 427 m 1
 6 427 l 1
 6 537 l 1
 116 537 l 1
 116 427 l 1
116 539 m 1
 6 539 l 1
 6 650 l 1
 116 650 l 1
 116 539 l 1
116 653 m 1
 6 653 l 1
 6 763 l 1
 116 763 l 1
 116 653 l 1
EndSplineSet
EndChar

StartChar: c
Encoding: 99 99 35
Width: 116
VWidth: 936
Flags: HW
LayerCount: 2
Fore
SplineSet
116 82 m 5
 6 82 l 5
 6 192 l 5
 116 192 l 5
 116 82 l 5
116 421 m 1
 6 421 l 1
 6 530 l 1
 116 530 l 1
 116 421 l 1
116 533 m 1
 6 533 l 1
 6 644 l 1
 116 644 l 1
 116 533 l 1
EndSplineSet
EndChar

StartChar: b
Encoding: 98 98 36
Width: 116
VWidth: 942
Flags: HW
LayerCount: 2
Fore
SplineSet
116 88 m 5
 6 88 l 5
 6 198 l 5
 116 198 l 5
 116 88 l 5
116 427 m 1
 6 427 l 1
 6 537 l 1
 116 537 l 1
 116 427 l 1
116 653 m 1
 6 653 l 1
 6 763 l 1
 116 763 l 1
 116 653 l 1
EndSplineSet
EndChar

StartChar: a
Encoding: 97 97 37
Width: 116
VWidth: 930
Flags: HW
LayerCount: 2
Fore
SplineSet
116 76 m 5
 6 76 l 5
 6 186 l 5
 116 186 l 5
 116 76 l 5
116 414 m 1
 6 414 l 1
 6 524 l 1
 116 524 l 1
 116 414 l 1
EndSplineSet
EndChar

StartChar: underscore
Encoding: 95 95 38
Width: 116
VWidth: 936
Flags: HW
LayerCount: 2
Fore
SplineSet
116 82 m 5
 6 82 l 5
 6 192 l 5
 116 192 l 5
 116 82 l 5
116 195 m 1
 6 195 l 1
 6 304 l 1
 116 304 l 1
 116 195 l 1
116 308 m 1
 6 308 l 1
 6 418 l 1
 116 418 l 1
 116 308 l 1
116 421 m 1
 6 421 l 1
 6 530 l 1
 116 530 l 1
 116 421 l 1
116 533 m 1
 6 533 l 1
 6 644 l 1
 116 644 l 1
 116 533 l 1
EndSplineSet
EndChar

StartChar: Z
Encoding: 90 90 39
Width: 116
VWidth: 942
Flags: HW
LayerCount: 2
Fore
SplineSet
116 88 m 5
 6 88 l 5
 6 198 l 5
 116 198 l 5
 116 88 l 5
116 539 m 1
 6 539 l 1
 6 650 l 1
 116 650 l 1
 116 539 l 1
116 653 m 1
 6 653 l 1
 6 763 l 1
 116 763 l 1
 116 653 l 1
EndSplineSet
EndChar

StartChar: Y
Encoding: 89 89 40
Width: 116
VWidth: 936
Flags: HW
LayerCount: 2
Fore
SplineSet
116 82 m 5
 6 82 l 5
 6 192 l 5
 116 192 l 5
 116 82 l 5
116 533 m 1
 6 533 l 1
 6 644 l 1
 116 644 l 1
 116 533 l 1
EndSplineSet
EndChar

StartChar: X
Encoding: 88 88 41
Width: 116
VWidth: 942
Flags: HW
LayerCount: 2
Fore
SplineSet
116 88 m 5
 6 88 l 5
 6 198 l 5
 116 198 l 5
 116 88 l 5
116 653 m 1
 6 653 l 1
 6 763 l 1
 116 763 l 1
 116 653 l 1
EndSplineSet
EndChar

StartChar: V
Encoding: 86 86 42
Width: 116
VWidth: 948
Flags: HW
LayerCount: 2
Fore
SplineSet
116 207 m 5
 6 207 l 5
 6 317 l 5
 116 317 l 5
 116 207 l 5
116 321 m 1
 6 321 l 1
 6 430 l 1
 116 430 l 1
 116 321 l 1
116 433 m 1
 6 433 l 1
 6 543 l 1
 116 543 l 1
 116 433 l 1
116 546 m 1
 6 546 l 1
 6 656 l 1
 116 656 l 1
 116 546 l 1
116 659 m 1
 6 659 l 1
 6 769 l 1
 116 769 l 1
 116 659 l 1
EndSplineSet
EndChar

StartChar: W
Encoding: 87 87 43
Width: 116
VWidth: 911
Flags: HW
LayerCount: 2
Fore
SplineSet
116 57 m 5
 6 57 l 5
 6 167 l 5
 116 167 l 5
 116 57 l 5
EndSplineSet
EndChar

StartChar: U
Encoding: 85 85 44
Width: 116
VWidth: 942
Flags: HW
LayerCount: 2
Fore
SplineSet
116 201 m 5
 6 201 l 5
 6 311 l 5
 116 311 l 5
 116 201 l 5
116 314 m 1
 6 314 l 1
 6 424 l 1
 116 424 l 1
 116 314 l 1
116 427 m 1
 6 427 l 1
 6 537 l 1
 116 537 l 1
 116 427 l 1
116 539 m 1
 6 539 l 1
 6 650 l 1
 116 650 l 1
 116 539 l 1
EndSplineSet
EndChar

StartChar: T
Encoding: 84 84 45
Width: 116
VWidth: 948
Flags: HW
LayerCount: 2
Fore
SplineSet
116 207 m 5
 6 207 l 5
 6 317 l 5
 116 317 l 5
 116 207 l 5
116 321 m 1
 6 321 l 1
 6 430 l 1
 116 430 l 1
 116 321 l 1
116 433 m 1
 6 433 l 1
 6 543 l 1
 116 543 l 1
 116 433 l 1
116 659 m 1
 6 659 l 1
 6 769 l 1
 116 769 l 1
 116 659 l 1
EndSplineSet
EndChar

StartChar: S
Encoding: 83 83 46
Width: 116
VWidth: 936
Flags: HW
LayerCount: 2
Fore
SplineSet
116 195 m 5
 6 195 l 5
 6 304 l 5
 116 304 l 5
 116 195 l 5
116 308 m 1
 6 308 l 1
 6 418 l 1
 116 418 l 1
 116 308 l 1
116 421 m 1
 6 421 l 1
 6 530 l 1
 116 530 l 1
 116 421 l 1
EndSplineSet
EndChar

StartChar: R
Encoding: 82 82 47
Width: 116
VWidth: 948
Flags: HW
LayerCount: 2
Fore
SplineSet
116 207 m 5
 6 207 l 5
 6 317 l 5
 116 317 l 5
 116 207 l 5
116 321 m 1
 6 321 l 1
 6 430 l 1
 116 430 l 1
 116 321 l 1
116 546 m 1
 6 546 l 1
 6 656 l 1
 116 656 l 1
 116 546 l 1
116 659 m 1
 6 659 l 1
 6 769 l 1
 116 769 l 1
 116 659 l 1
EndSplineSet
EndChar

StartChar: Q
Encoding: 81 81 48
Width: 116
VWidth: 942
Flags: HW
LayerCount: 2
Fore
SplineSet
116 201 m 5
 6 201 l 5
 6 311 l 5
 116 311 l 5
 116 201 l 5
116 314 m 1
 6 314 l 1
 6 424 l 1
 116 424 l 1
 116 314 l 1
116 539 m 1
 6 539 l 1
 6 650 l 1
 116 650 l 1
 116 539 l 1
EndSplineSet
EndChar

StartChar: l
Encoding: 108 108 49
Width: 116
VWidth: 942
Flags: HW
LayerCount: 2
Fore
SplineSet
116 88 m 5
 6 88 l 5
 6 198 l 5
 116 198 l 5
 116 88 l 5
116 314 m 1
 6 314 l 1
 6 424 l 1
 116 424 l 1
 116 314 l 1
116 427 m 1
 6 427 l 1
 6 537 l 1
 116 537 l 1
 116 427 l 1
116 539 m 1
 6 539 l 1
 6 650 l 1
 116 650 l 1
 116 539 l 1
116 653 m 1
 6 653 l 1
 6 763 l 1
 116 763 l 1
 116 653 l 1
EndSplineSet
EndChar

StartChar: m
Encoding: 109 109 50
Width: 116
VWidth: 917
Flags: HW
LayerCount: 2
Fore
SplineSet
116 63 m 5
 6 63 l 5
 6 173 l 5
 116 173 l 5
 116 63 l 5
116 176 m 1
 6 176 l 1
 6 286 l 1
 116 286 l 1
 116 176 l 1
EndSplineSet
EndChar

StartChar: n
Encoding: 110 110 51
Width: 116
VWidth: 942
Flags: HW
LayerCount: 2
Fore
SplineSet
116 88 m 5
 6 88 l 5
 6 198 l 5
 116 198 l 5
 116 88 l 5
116 201 m 1
 6 201 l 1
 6 311 l 1
 116 311 l 1
 116 201 l 1
116 653 m 1
 6 653 l 1
 6 763 l 1
 116 763 l 1
 116 653 l 1
EndSplineSet
EndChar

StartChar: o
Encoding: 111 111 52
Width: 116
VWidth: 936
Flags: HW
LayerCount: 2
Fore
SplineSet
116 82 m 5
 6 82 l 5
 6 192 l 5
 116 192 l 5
 116 82 l 5
116 195 m 1
 6 195 l 1
 6 304 l 1
 116 304 l 1
 116 195 l 1
116 533 m 1
 6 533 l 1
 6 644 l 1
 116 644 l 1
 116 533 l 1
EndSplineSet
EndChar

StartChar: p
Encoding: 112 112 53
Width: 116
VWidth: 942
Flags: HW
LayerCount: 2
Fore
SplineSet
116 88 m 5
 6 88 l 5
 6 198 l 5
 116 198 l 5
 116 88 l 5
116 201 m 1
 6 201 l 1
 6 311 l 1
 116 311 l 1
 116 201 l 1
116 539 m 1
 6 539 l 1
 6 650 l 1
 116 650 l 1
 116 539 l 1
116 653 m 1
 6 653 l 1
 6 763 l 1
 116 763 l 1
 116 653 l 1
EndSplineSet
EndChar

StartChar: q
Encoding: 113 113 54
Width: 116
VWidth: 930
Flags: HW
LayerCount: 2
Fore
SplineSet
116 76 m 5
 6 76 l 5
 6 186 l 5
 116 186 l 5
 116 76 l 5
116 188 m 1
 6 188 l 1
 6 298 l 1
 116 298 l 1
 116 188 l 1
116 414 m 1
 6 414 l 1
 6 524 l 1
 116 524 l 1
 116 414 l 1
EndSplineSet
EndChar

StartChar: r
Encoding: 114 114 55
Width: 116
VWidth: 942
Flags: HW
LayerCount: 2
Fore
SplineSet
116 88 m 5
 6 88 l 5
 6 198 l 5
 116 198 l 5
 116 88 l 5
116 201 m 1
 6 201 l 1
 6 311 l 1
 116 311 l 1
 116 201 l 1
116 427 m 1
 6 427 l 1
 6 537 l 1
 116 537 l 1
 116 427 l 1
116 653 m 1
 6 653 l 1
 6 763 l 1
 116 763 l 1
 116 653 l 1
EndSplineSet
EndChar

StartChar: s
Encoding: 115 115 56
Width: 116
VWidth: 936
Flags: HW
LayerCount: 2
Fore
SplineSet
116 82 m 5
 6 82 l 5
 6 192 l 5
 116 192 l 5
 116 82 l 5
116 195 m 1
 6 195 l 1
 6 304 l 1
 116 304 l 1
 116 195 l 1
116 421 m 1
 6 421 l 1
 6 530 l 1
 116 530 l 1
 116 421 l 1
116 533 m 1
 6 533 l 1
 6 644 l 1
 116 644 l 1
 116 533 l 1
EndSplineSet
EndChar

StartChar: t
Encoding: 116 116 57
Width: 116
VWidth: 942
Flags: HW
LayerCount: 2
Fore
SplineSet
116 88 m 5
 6 88 l 5
 6 198 l 5
 116 198 l 5
 116 88 l 5
116 201 m 1
 6 201 l 1
 6 311 l 1
 116 311 l 1
 116 201 l 1
116 427 m 1
 6 427 l 1
 6 537 l 1
 116 537 l 1
 116 427 l 1
116 539 m 1
 6 539 l 1
 6 650 l 1
 116 650 l 1
 116 539 l 1
116 653 m 1
 6 653 l 1
 6 763 l 1
 116 763 l 1
 116 653 l 1
EndSplineSet
EndChar

StartChar: u
Encoding: 117 117 58
Width: 116
VWidth: 923
Flags: HW
LayerCount: 2
Fore
SplineSet
116 70 m 5
 6 70 l 5
 6 179 l 5
 116 179 l 5
 116 70 l 5
116 182 m 1
 6 182 l 1
 6 292 l 1
 116 292 l 1
 116 182 l 1
116 296 m 1
 6 296 l 1
 6 405 l 1
 116 405 l 1
 116 296 l 1
EndSplineSet
EndChar

StartChar: v
Encoding: 118 118 59
Width: 116
VWidth: 942
Flags: HW
LayerCount: 2
Fore
SplineSet
116 88 m 5
 6 88 l 5
 6 198 l 5
 116 198 l 5
 116 88 l 5
116 201 m 1
 6 201 l 1
 6 311 l 1
 116 311 l 1
 116 201 l 1
116 314 m 1
 6 314 l 1
 6 424 l 1
 116 424 l 1
 116 314 l 1
116 653 m 1
 6 653 l 1
 6 763 l 1
 116 763 l 1
 116 653 l 1
EndSplineSet
EndChar

StartChar: w
Encoding: 119 119 60
Width: 116
VWidth: 936
Flags: HW
LayerCount: 2
Fore
SplineSet
116 82 m 5
 6 82 l 5
 6 192 l 5
 116 192 l 5
 116 82 l 5
116 195 m 1
 6 195 l 1
 6 304 l 1
 116 304 l 1
 116 195 l 1
116 308 m 1
 6 308 l 1
 6 418 l 1
 116 418 l 1
 116 308 l 1
116 533 m 1
 6 533 l 1
 6 644 l 1
 116 644 l 1
 116 533 l 1
EndSplineSet
EndChar

StartChar: x
Encoding: 120 120 61
Width: 116
VWidth: 942
Flags: HW
LayerCount: 2
Fore
SplineSet
116 88 m 5
 6 88 l 5
 6 198 l 5
 116 198 l 5
 116 88 l 5
116 201 m 1
 6 201 l 1
 6 311 l 1
 116 311 l 1
 116 201 l 1
116 314 m 1
 6 314 l 1
 6 424 l 1
 116 424 l 1
 116 314 l 1
116 539 m 1
 6 539 l 1
 6 650 l 1
 116 650 l 1
 116 539 l 1
116 653 m 1
 6 653 l 1
 6 763 l 1
 116 763 l 1
 116 653 l 1
EndSplineSet
EndChar

StartChar: y
Encoding: 121 121 62
Width: 116
VWidth: 930
Flags: HW
LayerCount: 2
Fore
SplineSet
116 76 m 5
 6 76 l 5
 6 186 l 5
 116 186 l 5
 116 76 l 5
116 188 m 1
 6 188 l 1
 6 298 l 1
 116 298 l 1
 116 188 l 1
116 302 m 1
 6 302 l 1
 6 412 l 1
 116 412 l 1
 116 302 l 1
116 414 m 1
 6 414 l 1
 6 524 l 1
 116 524 l 1
 116 414 l 1
EndSplineSet
EndChar

StartChar: z
Encoding: 122 122 63
Width: 116
VWidth: 942
Flags: HW
LayerCount: 2
Fore
SplineSet
116 88 m 5
 6 88 l 5
 6 198 l 5
 116 198 l 5
 116 88 l 5
116 201 m 1
 6 201 l 1
 6 311 l 1
 116 311 l 1
 116 201 l 1
116 314 m 1
 6 314 l 1
 6 424 l 1
 116 424 l 1
 116 314 l 1
116 427 m 1
 6 427 l 1
 6 537 l 1
 116 537 l 1
 116 427 l 1
116 653 m 1
 6 653 l 1
 6 763 l 1
 116 763 l 1
 116 653 l 1
EndSplineSet
EndChar

StartChar: bar
Encoding: 124 124 64
Width: 116
VWidth: 942
Flags: HW
LayerCount: 2
Fore
SplineSet
116 88 m 5
 6 88 l 5
 6 198 l 5
 116 198 l 5
 116 88 l 5
116 201 m 1
 6 201 l 1
 6 311 l 1
 116 311 l 1
 116 201 l 1
116 314 m 1
 6 314 l 1
 6 424 l 1
 116 424 l 1
 116 314 l 1
116 427 m 1
 6 427 l 1
 6 537 l 1
 116 537 l 1
 116 427 l 1
116 539 m 1
 6 539 l 1
 6 650 l 1
 116 650 l 1
 116 539 l 1
116 653 m 1
 6 653 l 1
 6 763 l 1
 116 763 l 1
 116 653 l 1
EndSplineSet
EndChar

StartChar: uni0001
Encoding: 1 1 65
Width: 116
VWidth: 942
Flags: HW
LayerCount: 2
Fore
SplineSet
116 88 m 5
 6 88 l 5
 6 198 l 5
 116 198 l 5
 116 88 l 5
116 201 m 1
 6 201 l 1
 6 311 l 1
 116 311 l 1
 116 201 l 1
116 314 m 1
 6 314 l 1
 6 424 l 1
 116 424 l 1
 116 314 l 1
116 427 m 1
 6 427 l 1
 6 537 l 1
 116 537 l 1
 116 427 l 1
116 539 m 1
 6 539 l 1
 6 650 l 1
 116 650 l 1
 116 539 l 1
116 653 m 1
 6 653 l 1
 6 763 l 1
 116 763 l 1
 116 653 l 1
EndSplineSet
EndChar

StartChar: uni0002
Encoding: 2 2 66
Width: 116
VWidth: 942
Flags: HW
LayerCount: 2
Fore
SplineSet
116 88 m 5
 6 88 l 5
 6 198 l 5
 116 198 l 5
 116 88 l 5
116 201 m 1
 6 201 l 1
 6 311 l 1
 116 311 l 1
 116 201 l 1
116 314 m 1
 6 314 l 1
 6 424 l 1
 116 424 l 1
 116 314 l 1
116 427 m 1
 6 427 l 1
 6 537 l 1
 116 537 l 1
 116 427 l 1
116 539 m 1
 6 539 l 1
 6 650 l 1
 116 650 l 1
 116 539 l 1
116 653 m 1
 6 653 l 1
 6 763 l 1
 116 763 l 1
 116 653 l 1
EndSplineSet
EndChar

StartChar: uni0003
Encoding: 3 3 67
Width: 116
VWidth: 942
Flags: HW
LayerCount: 2
Fore
SplineSet
116 88 m 5
 6 88 l 5
 6 198 l 5
 116 198 l 5
 116 88 l 5
116 201 m 1
 6 201 l 1
 6 311 l 1
 116 311 l 1
 116 201 l 1
116 314 m 1
 6 314 l 1
 6 424 l 1
 116 424 l 1
 116 314 l 1
116 427 m 1
 6 427 l 1
 6 537 l 1
 116 537 l 1
 116 427 l 1
116 539 m 1
 6 539 l 1
 6 650 l 1
 116 650 l 1
 116 539 l 1
116 653 m 1
 6 653 l 1
 6 763 l 1
 116 763 l 1
 116 653 l 1
EndSplineSet
EndChar

StartChar: uni0004
Encoding: 4 4 68
Width: 116
VWidth: 942
Flags: HW
LayerCount: 2
Fore
SplineSet
116 88 m 5
 6 88 l 5
 6 198 l 5
 116 198 l 5
 116 88 l 5
116 201 m 1
 6 201 l 1
 6 311 l 1
 116 311 l 1
 116 201 l 1
116 314 m 1
 6 314 l 1
 6 424 l 1
 116 424 l 1
 116 314 l 1
116 427 m 1
 6 427 l 1
 6 537 l 1
 116 537 l 1
 116 427 l 1
116 539 m 1
 6 539 l 1
 6 650 l 1
 116 650 l 1
 116 539 l 1
116 653 m 1
 6 653 l 1
 6 763 l 1
 116 763 l 1
 116 653 l 1
EndSplineSet
EndChar

StartChar: uni0005
Encoding: 5 5 69
Width: 116
VWidth: 942
Flags: HW
LayerCount: 2
Fore
SplineSet
116 88 m 5
 6 88 l 5
 6 198 l 5
 116 198 l 5
 116 88 l 5
116 201 m 1
 6 201 l 1
 6 311 l 1
 116 311 l 1
 116 201 l 1
116 314 m 1
 6 314 l 1
 6 424 l 1
 116 424 l 1
 116 314 l 1
116 427 m 1
 6 427 l 1
 6 537 l 1
 116 537 l 1
 116 427 l 1
116 539 m 1
 6 539 l 1
 6 650 l 1
 116 650 l 1
 116 539 l 1
116 653 m 1
 6 653 l 1
 6 763 l 1
 116 763 l 1
 116 653 l 1
EndSplineSet
EndChar

StartChar: uni0006
Encoding: 6 6 70
Width: 116
VWidth: 942
Flags: HW
LayerCount: 2
Fore
SplineSet
116 88 m 5
 6 88 l 5
 6 198 l 5
 116 198 l 5
 116 88 l 5
116 201 m 1
 6 201 l 1
 6 311 l 1
 116 311 l 1
 116 201 l 1
116 314 m 1
 6 314 l 1
 6 424 l 1
 116 424 l 1
 116 314 l 1
116 427 m 1
 6 427 l 1
 6 537 l 1
 116 537 l 1
 116 427 l 1
116 539 m 1
 6 539 l 1
 6 650 l 1
 116 650 l 1
 116 539 l 1
116 653 m 1
 6 653 l 1
 6 763 l 1
 116 763 l 1
 116 653 l 1
EndSplineSet
EndChar

StartChar: uni0007
Encoding: 7 7 71
Width: 116
VWidth: 942
Flags: HW
LayerCount: 2
Fore
SplineSet
116 88 m 5
 6 88 l 5
 6 198 l 5
 116 198 l 5
 116 88 l 5
116 201 m 1
 6 201 l 1
 6 311 l 1
 116 311 l 1
 116 201 l 1
116 314 m 1
 6 314 l 1
 6 424 l 1
 116 424 l 1
 116 314 l 1
116 427 m 1
 6 427 l 1
 6 537 l 1
 116 537 l 1
 116 427 l 1
116 539 m 1
 6 539 l 1
 6 650 l 1
 116 650 l 1
 116 539 l 1
116 653 m 1
 6 653 l 1
 6 763 l 1
 116 763 l 1
 116 653 l 1
EndSplineSet
EndChar

StartChar: uni0009
Encoding: 9 9 72
Width: 116
VWidth: 942
Flags: HW
LayerCount: 2
Fore
SplineSet
116 88 m 5
 6 88 l 5
 6 198 l 5
 116 198 l 5
 116 88 l 5
116 201 m 1
 6 201 l 1
 6 311 l 1
 116 311 l 1
 116 201 l 1
116 314 m 1
 6 314 l 1
 6 424 l 1
 116 424 l 1
 116 314 l 1
116 427 m 1
 6 427 l 1
 6 537 l 1
 116 537 l 1
 116 427 l 1
116 539 m 1
 6 539 l 1
 6 650 l 1
 116 650 l 1
 116 539 l 1
116 653 m 1
 6 653 l 1
 6 763 l 1
 116 763 l 1
 116 653 l 1
EndSplineSet
EndChar

StartChar: uni0008
Encoding: 8 8 73
Width: 116
VWidth: 942
Flags: HW
LayerCount: 2
Fore
SplineSet
116 88 m 5
 6 88 l 5
 6 198 l 5
 116 198 l 5
 116 88 l 5
116 201 m 1
 6 201 l 1
 6 311 l 1
 116 311 l 1
 116 201 l 1
116 314 m 1
 6 314 l 1
 6 424 l 1
 116 424 l 1
 116 314 l 1
116 427 m 1
 6 427 l 1
 6 537 l 1
 116 537 l 1
 116 427 l 1
116 539 m 1
 6 539 l 1
 6 650 l 1
 116 650 l 1
 116 539 l 1
116 653 m 1
 6 653 l 1
 6 763 l 1
 116 763 l 1
 116 653 l 1
EndSplineSet
EndChar

StartChar: uni000A
Encoding: 10 10 74
Width: 116
VWidth: 942
Flags: HW
LayerCount: 2
Fore
SplineSet
116 88 m 5
 6 88 l 5
 6 198 l 5
 116 198 l 5
 116 88 l 5
116 201 m 1
 6 201 l 1
 6 311 l 1
 116 311 l 1
 116 201 l 1
116 314 m 1
 6 314 l 1
 6 424 l 1
 116 424 l 1
 116 314 l 1
116 427 m 1
 6 427 l 1
 6 537 l 1
 116 537 l 1
 116 427 l 1
116 539 m 1
 6 539 l 1
 6 650 l 1
 116 650 l 1
 116 539 l 1
116 653 m 1
 6 653 l 1
 6 763 l 1
 116 763 l 1
 116 653 l 1
EndSplineSet
EndChar

StartChar: uni000B
Encoding: 11 11 75
Width: 116
VWidth: 942
Flags: HW
LayerCount: 2
Fore
SplineSet
116 88 m 5
 6 88 l 5
 6 198 l 5
 116 198 l 5
 116 88 l 5
116 201 m 1
 6 201 l 1
 6 311 l 1
 116 311 l 1
 116 201 l 1
116 314 m 1
 6 314 l 1
 6 424 l 1
 116 424 l 1
 116 314 l 1
116 427 m 1
 6 427 l 1
 6 537 l 1
 116 537 l 1
 116 427 l 1
116 539 m 1
 6 539 l 1
 6 650 l 1
 116 650 l 1
 116 539 l 1
116 653 m 1
 6 653 l 1
 6 763 l 1
 116 763 l 1
 116 653 l 1
EndSplineSet
EndChar

StartChar: uni000D
Encoding: 13 13 76
Width: 116
VWidth: 942
Flags: HW
LayerCount: 2
Fore
SplineSet
116 88 m 5
 6 88 l 5
 6 198 l 5
 116 198 l 5
 116 88 l 5
116 201 m 1
 6 201 l 1
 6 311 l 1
 116 311 l 1
 116 201 l 1
116 314 m 1
 6 314 l 1
 6 424 l 1
 116 424 l 1
 116 314 l 1
116 427 m 1
 6 427 l 1
 6 537 l 1
 116 537 l 1
 116 427 l 1
116 539 m 1
 6 539 l 1
 6 650 l 1
 116 650 l 1
 116 539 l 1
116 653 m 1
 6 653 l 1
 6 763 l 1
 116 763 l 1
 116 653 l 1
EndSplineSet
EndChar

StartChar: uni000C
Encoding: 12 12 77
Width: 116
VWidth: 942
Flags: HW
LayerCount: 2
Fore
SplineSet
116 88 m 5
 6 88 l 5
 6 198 l 5
 116 198 l 5
 116 88 l 5
116 201 m 1
 6 201 l 1
 6 311 l 1
 116 311 l 1
 116 201 l 1
116 314 m 1
 6 314 l 1
 6 424 l 1
 116 424 l 1
 116 314 l 1
116 427 m 1
 6 427 l 1
 6 537 l 1
 116 537 l 1
 116 427 l 1
116 539 m 1
 6 539 l 1
 6 650 l 1
 116 650 l 1
 116 539 l 1
116 653 m 1
 6 653 l 1
 6 763 l 1
 116 763 l 1
 116 653 l 1
EndSplineSet
EndChar

StartChar: uni000E
Encoding: 14 14 78
Width: 116
VWidth: 942
Flags: HW
LayerCount: 2
Fore
SplineSet
116 88 m 5
 6 88 l 5
 6 198 l 5
 116 198 l 5
 116 88 l 5
116 201 m 1
 6 201 l 1
 6 311 l 1
 116 311 l 1
 116 201 l 1
116 314 m 1
 6 314 l 1
 6 424 l 1
 116 424 l 1
 116 314 l 1
116 427 m 1
 6 427 l 1
 6 537 l 1
 116 537 l 1
 116 427 l 1
116 539 m 1
 6 539 l 1
 6 650 l 1
 116 650 l 1
 116 539 l 1
116 653 m 1
 6 653 l 1
 6 763 l 1
 116 763 l 1
 116 653 l 1
EndSplineSet
EndChar

StartChar: uni000F
Encoding: 15 15 79
Width: 116
VWidth: 942
Flags: HW
LayerCount: 2
Fore
SplineSet
116 88 m 5
 6 88 l 5
 6 198 l 5
 116 198 l 5
 116 88 l 5
116 201 m 1
 6 201 l 1
 6 311 l 1
 116 311 l 1
 116 201 l 1
116 314 m 1
 6 314 l 1
 6 424 l 1
 116 424 l 1
 116 314 l 1
116 427 m 1
 6 427 l 1
 6 537 l 1
 116 537 l 1
 116 427 l 1
116 539 m 1
 6 539 l 1
 6 650 l 1
 116 650 l 1
 116 539 l 1
116 653 m 1
 6 653 l 1
 6 763 l 1
 116 763 l 1
 116 653 l 1
EndSplineSet
EndChar

StartChar: uni0010
Encoding: 16 16 80
Width: 116
VWidth: 942
Flags: HW
LayerCount: 2
Fore
SplineSet
116 88 m 5
 6 88 l 5
 6 198 l 5
 116 198 l 5
 116 88 l 5
116 201 m 1
 6 201 l 1
 6 311 l 1
 116 311 l 1
 116 201 l 1
116 314 m 1
 6 314 l 1
 6 424 l 1
 116 424 l 1
 116 314 l 1
116 427 m 1
 6 427 l 1
 6 537 l 1
 116 537 l 1
 116 427 l 1
116 539 m 1
 6 539 l 1
 6 650 l 1
 116 650 l 1
 116 539 l 1
116 653 m 1
 6 653 l 1
 6 763 l 1
 116 763 l 1
 116 653 l 1
EndSplineSet
EndChar

StartChar: uni0011
Encoding: 17 17 81
Width: 116
VWidth: 942
Flags: HW
LayerCount: 2
Fore
SplineSet
116 88 m 5
 6 88 l 5
 6 198 l 5
 116 198 l 5
 116 88 l 5
116 201 m 1
 6 201 l 1
 6 311 l 1
 116 311 l 1
 116 201 l 1
116 314 m 1
 6 314 l 1
 6 424 l 1
 116 424 l 1
 116 314 l 1
116 427 m 1
 6 427 l 1
 6 537 l 1
 116 537 l 1
 116 427 l 1
116 539 m 1
 6 539 l 1
 6 650 l 1
 116 650 l 1
 116 539 l 1
116 653 m 1
 6 653 l 1
 6 763 l 1
 116 763 l 1
 116 653 l 1
EndSplineSet
EndChar

StartChar: uni0012
Encoding: 18 18 82
Width: 116
VWidth: 942
Flags: HW
LayerCount: 2
Fore
SplineSet
116 88 m 5
 6 88 l 5
 6 198 l 5
 116 198 l 5
 116 88 l 5
116 201 m 1
 6 201 l 1
 6 311 l 1
 116 311 l 1
 116 201 l 1
116 314 m 1
 6 314 l 1
 6 424 l 1
 116 424 l 1
 116 314 l 1
116 427 m 1
 6 427 l 1
 6 537 l 1
 116 537 l 1
 116 427 l 1
116 539 m 1
 6 539 l 1
 6 650 l 1
 116 650 l 1
 116 539 l 1
116 653 m 1
 6 653 l 1
 6 763 l 1
 116 763 l 1
 116 653 l 1
EndSplineSet
EndChar

StartChar: uni0013
Encoding: 19 19 83
Width: 116
VWidth: 942
Flags: HW
LayerCount: 2
Fore
SplineSet
116 88 m 5
 6 88 l 5
 6 198 l 5
 116 198 l 5
 116 88 l 5
116 201 m 1
 6 201 l 1
 6 311 l 1
 116 311 l 1
 116 201 l 1
116 314 m 1
 6 314 l 1
 6 424 l 1
 116 424 l 1
 116 314 l 1
116 427 m 1
 6 427 l 1
 6 537 l 1
 116 537 l 1
 116 427 l 1
116 539 m 1
 6 539 l 1
 6 650 l 1
 116 650 l 1
 116 539 l 1
116 653 m 1
 6 653 l 1
 6 763 l 1
 116 763 l 1
 116 653 l 1
EndSplineSet
EndChar

StartChar: uni0014
Encoding: 20 20 84
Width: 116
VWidth: 942
Flags: HW
LayerCount: 2
Fore
SplineSet
116 88 m 5
 6 88 l 5
 6 198 l 5
 116 198 l 5
 116 88 l 5
116 201 m 1
 6 201 l 1
 6 311 l 1
 116 311 l 1
 116 201 l 1
116 314 m 1
 6 314 l 1
 6 424 l 1
 116 424 l 1
 116 314 l 1
116 427 m 1
 6 427 l 1
 6 537 l 1
 116 537 l 1
 116 427 l 1
116 539 m 1
 6 539 l 1
 6 650 l 1
 116 650 l 1
 116 539 l 1
116 653 m 1
 6 653 l 1
 6 763 l 1
 116 763 l 1
 116 653 l 1
EndSplineSet
EndChar

StartChar: uni0015
Encoding: 21 21 85
Width: 116
VWidth: 942
Flags: HW
LayerCount: 2
Fore
SplineSet
116 88 m 5
 6 88 l 5
 6 198 l 5
 116 198 l 5
 116 88 l 5
116 201 m 1
 6 201 l 1
 6 311 l 1
 116 311 l 1
 116 201 l 1
116 314 m 1
 6 314 l 1
 6 424 l 1
 116 424 l 1
 116 314 l 1
116 427 m 1
 6 427 l 1
 6 537 l 1
 116 537 l 1
 116 427 l 1
116 539 m 1
 6 539 l 1
 6 650 l 1
 116 650 l 1
 116 539 l 1
116 653 m 1
 6 653 l 1
 6 763 l 1
 116 763 l 1
 116 653 l 1
EndSplineSet
EndChar

StartChar: uni0017
Encoding: 23 23 86
Width: 116
VWidth: 942
Flags: HW
LayerCount: 2
Fore
SplineSet
116 88 m 5
 6 88 l 5
 6 198 l 5
 116 198 l 5
 116 88 l 5
116 201 m 1
 6 201 l 1
 6 311 l 1
 116 311 l 1
 116 201 l 1
116 314 m 1
 6 314 l 1
 6 424 l 1
 116 424 l 1
 116 314 l 1
116 427 m 1
 6 427 l 1
 6 537 l 1
 116 537 l 1
 116 427 l 1
116 539 m 1
 6 539 l 1
 6 650 l 1
 116 650 l 1
 116 539 l 1
116 653 m 1
 6 653 l 1
 6 763 l 1
 116 763 l 1
 116 653 l 1
EndSplineSet
EndChar

StartChar: uni0016
Encoding: 22 22 87
Width: 116
VWidth: 942
Flags: HW
LayerCount: 2
Fore
SplineSet
116 88 m 5
 6 88 l 5
 6 198 l 5
 116 198 l 5
 116 88 l 5
116 201 m 1
 6 201 l 1
 6 311 l 1
 116 311 l 1
 116 201 l 1
116 314 m 1
 6 314 l 1
 6 424 l 1
 116 424 l 1
 116 314 l 1
116 427 m 1
 6 427 l 1
 6 537 l 1
 116 537 l 1
 116 427 l 1
116 539 m 1
 6 539 l 1
 6 650 l 1
 116 650 l 1
 116 539 l 1
116 653 m 1
 6 653 l 1
 6 763 l 1
 116 763 l 1
 116 653 l 1
EndSplineSet
EndChar

StartChar: uni0018
Encoding: 24 24 88
Width: 116
VWidth: 942
Flags: HW
LayerCount: 2
Fore
SplineSet
116 88 m 5
 6 88 l 5
 6 198 l 5
 116 198 l 5
 116 88 l 5
116 201 m 1
 6 201 l 1
 6 311 l 1
 116 311 l 1
 116 201 l 1
116 314 m 1
 6 314 l 1
 6 424 l 1
 116 424 l 1
 116 314 l 1
116 427 m 1
 6 427 l 1
 6 537 l 1
 116 537 l 1
 116 427 l 1
116 539 m 1
 6 539 l 1
 6 650 l 1
 116 650 l 1
 116 539 l 1
116 653 m 1
 6 653 l 1
 6 763 l 1
 116 763 l 1
 116 653 l 1
EndSplineSet
EndChar

StartChar: uni0019
Encoding: 25 25 89
Width: 116
VWidth: 942
Flags: HW
LayerCount: 2
Fore
SplineSet
116 88 m 5
 6 88 l 5
 6 198 l 5
 116 198 l 5
 116 88 l 5
116 201 m 1
 6 201 l 1
 6 311 l 1
 116 311 l 1
 116 201 l 1
116 314 m 1
 6 314 l 1
 6 424 l 1
 116 424 l 1
 116 314 l 1
116 427 m 1
 6 427 l 1
 6 537 l 1
 116 537 l 1
 116 427 l 1
116 539 m 1
 6 539 l 1
 6 650 l 1
 116 650 l 1
 116 539 l 1
116 653 m 1
 6 653 l 1
 6 763 l 1
 116 763 l 1
 116 653 l 1
EndSplineSet
EndChar

StartChar: uni001A
Encoding: 26 26 90
Width: 116
VWidth: 942
Flags: HW
LayerCount: 2
Fore
SplineSet
116 88 m 5
 6 88 l 5
 6 198 l 5
 116 198 l 5
 116 88 l 5
116 201 m 1
 6 201 l 1
 6 311 l 1
 116 311 l 1
 116 201 l 1
116 314 m 1
 6 314 l 1
 6 424 l 1
 116 424 l 1
 116 314 l 1
116 427 m 1
 6 427 l 1
 6 537 l 1
 116 537 l 1
 116 427 l 1
116 539 m 1
 6 539 l 1
 6 650 l 1
 116 650 l 1
 116 539 l 1
116 653 m 1
 6 653 l 1
 6 763 l 1
 116 763 l 1
 116 653 l 1
EndSplineSet
EndChar

StartChar: uni001B
Encoding: 27 27 91
Width: 116
VWidth: 942
Flags: HW
LayerCount: 2
Fore
SplineSet
116 88 m 1
 6 88 l 1
 6 198 l 1
 116 198 l 1
 116 88 l 1
116 201 m 1
 6 201 l 1
 6 311 l 1
 116 311 l 1
 116 201 l 1
116 314 m 1
 6 314 l 1
 6 424 l 1
 116 424 l 1
 116 314 l 1
116 427 m 1
 6 427 l 1
 6 537 l 1
 116 537 l 1
 116 427 l 1
116 539 m 1
 6 539 l 1
 6 650 l 1
 116 650 l 1
 116 539 l 1
116 653 m 1
 6 653 l 1
 6 763 l 1
 116 763 l 1
 116 653 l 1
EndSplineSet
EndChar

StartChar: uni001C
Encoding: 28 28 92
Width: 116
VWidth: 942
Flags: HW
LayerCount: 2
Fore
SplineSet
116 88 m 5
 6 88 l 5
 6 198 l 5
 116 198 l 5
 116 88 l 5
116 201 m 1
 6 201 l 1
 6 311 l 1
 116 311 l 1
 116 201 l 1
116 314 m 1
 6 314 l 1
 6 424 l 1
 116 424 l 1
 116 314 l 1
116 427 m 1
 6 427 l 1
 6 537 l 1
 116 537 l 1
 116 427 l 1
116 539 m 1
 6 539 l 1
 6 650 l 1
 116 650 l 1
 116 539 l 1
116 653 m 1
 6 653 l 1
 6 763 l 1
 116 763 l 1
 116 653 l 1
EndSplineSet
EndChar

StartChar: uni001D
Encoding: 29 29 93
Width: 116
VWidth: 942
Flags: HW
LayerCount: 2
Fore
SplineSet
116 88 m 5
 6 88 l 5
 6 198 l 5
 116 198 l 5
 116 88 l 5
116 201 m 1
 6 201 l 1
 6 311 l 1
 116 311 l 1
 116 201 l 1
116 314 m 1
 6 314 l 1
 6 424 l 1
 116 424 l 1
 116 314 l 1
116 427 m 1
 6 427 l 1
 6 537 l 1
 116 537 l 1
 116 427 l 1
116 539 m 1
 6 539 l 1
 6 650 l 1
 116 650 l 1
 116 539 l 1
116 653 m 1
 6 653 l 1
 6 763 l 1
 116 763 l 1
 116 653 l 1
EndSplineSet
EndChar

StartChar: uni001E
Encoding: 30 30 94
Width: 116
VWidth: 942
Flags: HW
LayerCount: 2
Fore
SplineSet
116 88 m 5
 6 88 l 5
 6 198 l 5
 116 198 l 5
 116 88 l 5
116 201 m 1
 6 201 l 1
 6 311 l 1
 116 311 l 1
 116 201 l 1
116 314 m 1
 6 314 l 1
 6 424 l 1
 116 424 l 1
 116 314 l 1
116 427 m 1
 6 427 l 1
 6 537 l 1
 116 537 l 1
 116 427 l 1
116 539 m 1
 6 539 l 1
 6 650 l 1
 116 650 l 1
 116 539 l 1
116 653 m 1
 6 653 l 1
 6 763 l 1
 116 763 l 1
 116 653 l 1
EndSplineSet
EndChar

StartChar: uni001F
Encoding: 31 31 95
Width: 116
VWidth: 942
Flags: HW
LayerCount: 2
Fore
SplineSet
116 88 m 5
 6 88 l 5
 6 198 l 5
 116 198 l 5
 116 88 l 5
116 201 m 1
 6 201 l 1
 6 311 l 1
 116 311 l 1
 116 201 l 1
116 314 m 1
 6 314 l 1
 6 424 l 1
 116 424 l 1
 116 314 l 1
116 427 m 1
 6 427 l 1
 6 537 l 1
 116 537 l 1
 116 427 l 1
116 539 m 1
 6 539 l 1
 6 650 l 1
 116 650 l 1
 116 539 l 1
116 653 m 1
 6 653 l 1
 6 763 l 1
 116 763 l 1
 116 653 l 1
EndSplineSet
EndChar

StartChar: space
Encoding: 32 32 96
Width: 116
VWidth: 942
Flags: HW
LayerCount: 2
Fore
SplineSet
116 88 m 5
 6 88 l 5
 6 198 l 5
 116 198 l 5
 116 88 l 5
116 201 m 1
 6 201 l 1
 6 311 l 1
 116 311 l 1
 116 201 l 1
116 314 m 1
 6 314 l 1
 6 424 l 1
 116 424 l 1
 116 314 l 1
116 427 m 1
 6 427 l 1
 6 537 l 1
 116 537 l 1
 116 427 l 1
116 539 m 1
 6 539 l 1
 6 650 l 1
 116 650 l 1
 116 539 l 1
116 653 m 1
 6 653 l 1
 6 763 l 1
 116 763 l 1
 116 653 l 1
EndSplineSet
EndChar

StartChar: exclam
Encoding: 33 33 97
Width: 116
VWidth: 942
Flags: HW
LayerCount: 2
Fore
SplineSet
116 88 m 5
 6 88 l 5
 6 198 l 5
 116 198 l 5
 116 88 l 5
116 201 m 1
 6 201 l 1
 6 311 l 1
 116 311 l 1
 116 201 l 1
116 314 m 1
 6 314 l 1
 6 424 l 1
 116 424 l 1
 116 314 l 1
116 427 m 1
 6 427 l 1
 6 537 l 1
 116 537 l 1
 116 427 l 1
116 539 m 1
 6 539 l 1
 6 650 l 1
 116 650 l 1
 116 539 l 1
116 653 m 1
 6 653 l 1
 6 763 l 1
 116 763 l 1
 116 653 l 1
EndSplineSet
EndChar

StartChar: quotedbl
Encoding: 34 34 98
Width: 116
VWidth: 942
Flags: HW
LayerCount: 2
Fore
SplineSet
116 88 m 5
 6 88 l 5
 6 198 l 5
 116 198 l 5
 116 88 l 5
116 201 m 1
 6 201 l 1
 6 311 l 1
 116 311 l 1
 116 201 l 1
116 314 m 1
 6 314 l 1
 6 424 l 1
 116 424 l 1
 116 314 l 1
116 427 m 1
 6 427 l 1
 6 537 l 1
 116 537 l 1
 116 427 l 1
116 539 m 1
 6 539 l 1
 6 650 l 1
 116 650 l 1
 116 539 l 1
116 653 m 1
 6 653 l 1
 6 763 l 1
 116 763 l 1
 116 653 l 1
EndSplineSet
EndChar

StartChar: numbersign
Encoding: 35 35 99
Width: 116
VWidth: 942
Flags: HW
LayerCount: 2
Fore
SplineSet
116 88 m 5
 6 88 l 5
 6 198 l 5
 116 198 l 5
 116 88 l 5
116 201 m 1
 6 201 l 1
 6 311 l 1
 116 311 l 1
 116 201 l 1
116 314 m 1
 6 314 l 1
 6 424 l 1
 116 424 l 1
 116 314 l 1
116 427 m 1
 6 427 l 1
 6 537 l 1
 116 537 l 1
 116 427 l 1
116 539 m 1
 6 539 l 1
 6 650 l 1
 116 650 l 1
 116 539 l 1
116 653 m 1
 6 653 l 1
 6 763 l 1
 116 763 l 1
 116 653 l 1
EndSplineSet
EndChar

StartChar: dollar
Encoding: 36 36 100
Width: 116
VWidth: 942
Flags: HW
LayerCount: 2
Fore
SplineSet
116 88 m 5
 6 88 l 5
 6 198 l 5
 116 198 l 5
 116 88 l 5
116 201 m 1
 6 201 l 1
 6 311 l 1
 116 311 l 1
 116 201 l 1
116 314 m 1
 6 314 l 1
 6 424 l 1
 116 424 l 1
 116 314 l 1
116 427 m 1
 6 427 l 1
 6 537 l 1
 116 537 l 1
 116 427 l 1
116 539 m 1
 6 539 l 1
 6 650 l 1
 116 650 l 1
 116 539 l 1
116 653 m 1
 6 653 l 1
 6 763 l 1
 116 763 l 1
 116 653 l 1
EndSplineSet
EndChar

StartChar: percent
Encoding: 37 37 101
Width: 116
VWidth: 942
Flags: HW
LayerCount: 2
Fore
SplineSet
116 88 m 5
 6 88 l 5
 6 198 l 5
 116 198 l 5
 116 88 l 5
116 201 m 1
 6 201 l 1
 6 311 l 1
 116 311 l 1
 116 201 l 1
116 314 m 1
 6 314 l 1
 6 424 l 1
 116 424 l 1
 116 314 l 1
116 427 m 1
 6 427 l 1
 6 537 l 1
 116 537 l 1
 116 427 l 1
116 539 m 1
 6 539 l 1
 6 650 l 1
 116 650 l 1
 116 539 l 1
116 653 m 1
 6 653 l 1
 6 763 l 1
 116 763 l 1
 116 653 l 1
EndSplineSet
EndChar

StartChar: ampersand
Encoding: 38 38 102
Width: 116
VWidth: 942
Flags: HW
LayerCount: 2
Fore
SplineSet
116 88 m 5
 6 88 l 5
 6 198 l 5
 116 198 l 5
 116 88 l 5
116 201 m 1
 6 201 l 1
 6 311 l 1
 116 311 l 1
 116 201 l 1
116 314 m 1
 6 314 l 1
 6 424 l 1
 116 424 l 1
 116 314 l 1
116 427 m 1
 6 427 l 1
 6 537 l 1
 116 537 l 1
 116 427 l 1
116 539 m 1
 6 539 l 1
 6 650 l 1
 116 650 l 1
 116 539 l 1
116 653 m 1
 6 653 l 1
 6 763 l 1
 116 763 l 1
 116 653 l 1
EndSplineSet
EndChar

StartChar: quotesingle
Encoding: 39 39 103
Width: 116
VWidth: 942
Flags: HW
LayerCount: 2
Fore
SplineSet
116 88 m 5
 6 88 l 5
 6 198 l 5
 116 198 l 5
 116 88 l 5
116 201 m 1
 6 201 l 1
 6 311 l 1
 116 311 l 1
 116 201 l 1
116 314 m 1
 6 314 l 1
 6 424 l 1
 116 424 l 1
 116 314 l 1
116 427 m 1
 6 427 l 1
 6 537 l 1
 116 537 l 1
 116 427 l 1
116 539 m 1
 6 539 l 1
 6 650 l 1
 116 650 l 1
 116 539 l 1
116 653 m 1
 6 653 l 1
 6 763 l 1
 116 763 l 1
 116 653 l 1
EndSplineSet
EndChar

StartChar: parenleft
Encoding: 40 40 104
Width: 116
VWidth: 942
Flags: HW
LayerCount: 2
Fore
SplineSet
116 88 m 5
 6 88 l 5
 6 198 l 5
 116 198 l 5
 116 88 l 5
116 201 m 1
 6 201 l 1
 6 311 l 1
 116 311 l 1
 116 201 l 1
116 314 m 1
 6 314 l 1
 6 424 l 1
 116 424 l 1
 116 314 l 1
116 427 m 1
 6 427 l 1
 6 537 l 1
 116 537 l 1
 116 427 l 1
116 539 m 1
 6 539 l 1
 6 650 l 1
 116 650 l 1
 116 539 l 1
116 653 m 1
 6 653 l 1
 6 763 l 1
 116 763 l 1
 116 653 l 1
EndSplineSet
EndChar

StartChar: parenright
Encoding: 41 41 105
Width: 116
VWidth: 942
Flags: HW
LayerCount: 2
Fore
SplineSet
116 88 m 5
 6 88 l 5
 6 198 l 5
 116 198 l 5
 116 88 l 5
116 201 m 1
 6 201 l 1
 6 311 l 1
 116 311 l 1
 116 201 l 1
116 314 m 1
 6 314 l 1
 6 424 l 1
 116 424 l 1
 116 314 l 1
116 427 m 1
 6 427 l 1
 6 537 l 1
 116 537 l 1
 116 427 l 1
116 539 m 1
 6 539 l 1
 6 650 l 1
 116 650 l 1
 116 539 l 1
116 653 m 1
 6 653 l 1
 6 763 l 1
 116 763 l 1
 116 653 l 1
EndSplineSet
EndChar

StartChar: asterisk
Encoding: 42 42 106
Width: 116
VWidth: 942
Flags: HW
LayerCount: 2
Fore
SplineSet
116 88 m 5
 6 88 l 5
 6 198 l 5
 116 198 l 5
 116 88 l 5
116 201 m 1
 6 201 l 1
 6 311 l 1
 116 311 l 1
 116 201 l 1
116 314 m 1
 6 314 l 1
 6 424 l 1
 116 424 l 1
 116 314 l 1
116 427 m 1
 6 427 l 1
 6 537 l 1
 116 537 l 1
 116 427 l 1
116 539 m 1
 6 539 l 1
 6 650 l 1
 116 650 l 1
 116 539 l 1
116 653 m 1
 6 653 l 1
 6 763 l 1
 116 763 l 1
 116 653 l 1
EndSplineSet
EndChar

StartChar: plus
Encoding: 43 43 107
Width: 116
VWidth: 942
Flags: HW
LayerCount: 2
Fore
SplineSet
116 88 m 5
 6 88 l 5
 6 198 l 5
 116 198 l 5
 116 88 l 5
116 201 m 1
 6 201 l 1
 6 311 l 1
 116 311 l 1
 116 201 l 1
116 314 m 1
 6 314 l 1
 6 424 l 1
 116 424 l 1
 116 314 l 1
116 427 m 1
 6 427 l 1
 6 537 l 1
 116 537 l 1
 116 427 l 1
116 539 m 1
 6 539 l 1
 6 650 l 1
 116 650 l 1
 116 539 l 1
116 653 m 1
 6 653 l 1
 6 763 l 1
 116 763 l 1
 116 653 l 1
EndSplineSet
EndChar

StartChar: comma
Encoding: 44 44 108
Width: 116
VWidth: 942
Flags: HW
LayerCount: 2
Fore
SplineSet
116 88 m 5
 6 88 l 5
 6 198 l 5
 116 198 l 5
 116 88 l 5
116 201 m 1
 6 201 l 1
 6 311 l 1
 116 311 l 1
 116 201 l 1
116 314 m 1
 6 314 l 1
 6 424 l 1
 116 424 l 1
 116 314 l 1
116 427 m 1
 6 427 l 1
 6 537 l 1
 116 537 l 1
 116 427 l 1
116 539 m 1
 6 539 l 1
 6 650 l 1
 116 650 l 1
 116 539 l 1
116 653 m 1
 6 653 l 1
 6 763 l 1
 116 763 l 1
 116 653 l 1
EndSplineSet
EndChar

StartChar: hyphen
Encoding: 45 45 109
Width: 116
VWidth: 942
Flags: HW
LayerCount: 2
Fore
SplineSet
116 88 m 5
 6 88 l 5
 6 198 l 5
 116 198 l 5
 116 88 l 5
116 201 m 1
 6 201 l 1
 6 311 l 1
 116 311 l 1
 116 201 l 1
116 314 m 1
 6 314 l 1
 6 424 l 1
 116 424 l 1
 116 314 l 1
116 427 m 1
 6 427 l 1
 6 537 l 1
 116 537 l 1
 116 427 l 1
116 539 m 1
 6 539 l 1
 6 650 l 1
 116 650 l 1
 116 539 l 1
116 653 m 1
 6 653 l 1
 6 763 l 1
 116 763 l 1
 116 653 l 1
EndSplineSet
EndChar

StartChar: period
Encoding: 46 46 110
Width: 116
VWidth: 942
Flags: HW
LayerCount: 2
Fore
SplineSet
116 88 m 5
 6 88 l 5
 6 198 l 5
 116 198 l 5
 116 88 l 5
116 201 m 1
 6 201 l 1
 6 311 l 1
 116 311 l 1
 116 201 l 1
116 314 m 1
 6 314 l 1
 6 424 l 1
 116 424 l 1
 116 314 l 1
116 427 m 1
 6 427 l 1
 6 537 l 1
 116 537 l 1
 116 427 l 1
116 539 m 1
 6 539 l 1
 6 650 l 1
 116 650 l 1
 116 539 l 1
116 653 m 1
 6 653 l 1
 6 763 l 1
 116 763 l 1
 116 653 l 1
EndSplineSet
EndChar

StartChar: slash
Encoding: 47 47 111
Width: 116
VWidth: 942
Flags: HW
LayerCount: 2
Fore
SplineSet
116 88 m 5
 6 88 l 5
 6 198 l 5
 116 198 l 5
 116 88 l 5
116 201 m 1
 6 201 l 1
 6 311 l 1
 116 311 l 1
 116 201 l 1
116 314 m 1
 6 314 l 1
 6 424 l 1
 116 424 l 1
 116 314 l 1
116 427 m 1
 6 427 l 1
 6 537 l 1
 116 537 l 1
 116 427 l 1
116 539 m 1
 6 539 l 1
 6 650 l 1
 116 650 l 1
 116 539 l 1
116 653 m 1
 6 653 l 1
 6 763 l 1
 116 763 l 1
 116 653 l 1
EndSplineSet
EndChar

StartChar: colon
Encoding: 58 58 112
Width: 116
VWidth: 942
Flags: HW
LayerCount: 2
Fore
SplineSet
116 88 m 5
 6 88 l 5
 6 198 l 5
 116 198 l 5
 116 88 l 5
116 201 m 1
 6 201 l 1
 6 311 l 1
 116 311 l 1
 116 201 l 1
116 314 m 1
 6 314 l 1
 6 424 l 1
 116 424 l 1
 116 314 l 1
116 427 m 1
 6 427 l 1
 6 537 l 1
 116 537 l 1
 116 427 l 1
116 539 m 1
 6 539 l 1
 6 650 l 1
 116 650 l 1
 116 539 l 1
116 653 m 1
 6 653 l 1
 6 763 l 1
 116 763 l 1
 116 653 l 1
EndSplineSet
EndChar

StartChar: semicolon
Encoding: 59 59 113
Width: 116
VWidth: 942
Flags: HW
LayerCount: 2
Fore
SplineSet
116 88 m 5
 6 88 l 5
 6 198 l 5
 116 198 l 5
 116 88 l 5
116 201 m 1
 6 201 l 1
 6 311 l 1
 116 311 l 1
 116 201 l 1
116 314 m 1
 6 314 l 1
 6 424 l 1
 116 424 l 1
 116 314 l 1
116 427 m 1
 6 427 l 1
 6 537 l 1
 116 537 l 1
 116 427 l 1
116 539 m 1
 6 539 l 1
 6 650 l 1
 116 650 l 1
 116 539 l 1
116 653 m 1
 6 653 l 1
 6 763 l 1
 116 763 l 1
 116 653 l 1
EndSplineSet
EndChar

StartChar: less
Encoding: 60 60 114
Width: 116
VWidth: 942
Flags: HW
LayerCount: 2
Fore
SplineSet
116 88 m 5
 6 88 l 5
 6 198 l 5
 116 198 l 5
 116 88 l 5
116 201 m 1
 6 201 l 1
 6 311 l 1
 116 311 l 1
 116 201 l 1
116 314 m 1
 6 314 l 1
 6 424 l 1
 116 424 l 1
 116 314 l 1
116 427 m 1
 6 427 l 1
 6 537 l 1
 116 537 l 1
 116 427 l 1
116 539 m 1
 6 539 l 1
 6 650 l 1
 116 650 l 1
 116 539 l 1
116 653 m 1
 6 653 l 1
 6 763 l 1
 116 763 l 1
 116 653 l 1
EndSplineSet
EndChar

StartChar: equal
Encoding: 61 61 115
Width: 116
VWidth: 942
Flags: HW
LayerCount: 2
Fore
SplineSet
116 88 m 5
 6 88 l 5
 6 198 l 5
 116 198 l 5
 116 88 l 5
116 201 m 1
 6 201 l 1
 6 311 l 1
 116 311 l 1
 116 201 l 1
116 314 m 1
 6 314 l 1
 6 424 l 1
 116 424 l 1
 116 314 l 1
116 427 m 1
 6 427 l 1
 6 537 l 1
 116 537 l 1
 116 427 l 1
116 539 m 1
 6 539 l 1
 6 650 l 1
 116 650 l 1
 116 539 l 1
116 653 m 1
 6 653 l 1
 6 763 l 1
 116 763 l 1
 116 653 l 1
EndSplineSet
EndChar

StartChar: greater
Encoding: 62 62 116
Width: 116
VWidth: 942
Flags: HW
LayerCount: 2
Fore
SplineSet
116 88 m 5
 6 88 l 5
 6 198 l 5
 116 198 l 5
 116 88 l 5
116 201 m 1
 6 201 l 1
 6 311 l 1
 116 311 l 1
 116 201 l 1
116 314 m 1
 6 314 l 1
 6 424 l 1
 116 424 l 1
 116 314 l 1
116 427 m 1
 6 427 l 1
 6 537 l 1
 116 537 l 1
 116 427 l 1
116 539 m 1
 6 539 l 1
 6 650 l 1
 116 650 l 1
 116 539 l 1
116 653 m 1
 6 653 l 1
 6 763 l 1
 116 763 l 1
 116 653 l 1
EndSplineSet
EndChar

StartChar: question
Encoding: 63 63 117
Width: 116
VWidth: 942
Flags: HW
LayerCount: 2
Fore
SplineSet
116 88 m 5
 6 88 l 5
 6 198 l 5
 116 198 l 5
 116 88 l 5
116 201 m 1
 6 201 l 1
 6 311 l 1
 116 311 l 1
 116 201 l 1
116 314 m 1
 6 314 l 1
 6 424 l 1
 116 424 l 1
 116 314 l 1
116 427 m 1
 6 427 l 1
 6 537 l 1
 116 537 l 1
 116 427 l 1
116 539 m 1
 6 539 l 1
 6 650 l 1
 116 650 l 1
 116 539 l 1
116 653 m 1
 6 653 l 1
 6 763 l 1
 116 763 l 1
 116 653 l 1
EndSplineSet
EndChar

StartChar: at
Encoding: 64 64 118
Width: 116
VWidth: 942
Flags: HW
LayerCount: 2
Fore
SplineSet
116 88 m 5
 6 88 l 5
 6 198 l 5
 116 198 l 5
 116 88 l 5
116 201 m 1
 6 201 l 1
 6 311 l 1
 116 311 l 1
 116 201 l 1
116 314 m 1
 6 314 l 1
 6 424 l 1
 116 424 l 1
 116 314 l 1
116 427 m 1
 6 427 l 1
 6 537 l 1
 116 537 l 1
 116 427 l 1
116 539 m 1
 6 539 l 1
 6 650 l 1
 116 650 l 1
 116 539 l 1
116 653 m 1
 6 653 l 1
 6 763 l 1
 116 763 l 1
 116 653 l 1
EndSplineSet
EndChar

StartChar: bracketleft
Encoding: 91 91 119
Width: 116
VWidth: 942
Flags: HW
LayerCount: 2
Fore
SplineSet
116 88 m 5
 6 88 l 5
 6 198 l 5
 116 198 l 5
 116 88 l 5
116 201 m 1
 6 201 l 1
 6 311 l 1
 116 311 l 1
 116 201 l 1
116 314 m 1
 6 314 l 1
 6 424 l 1
 116 424 l 1
 116 314 l 1
116 427 m 1
 6 427 l 1
 6 537 l 1
 116 537 l 1
 116 427 l 1
116 539 m 1
 6 539 l 1
 6 650 l 1
 116 650 l 1
 116 539 l 1
116 653 m 1
 6 653 l 1
 6 763 l 1
 116 763 l 1
 116 653 l 1
EndSplineSet
EndChar

StartChar: backslash
Encoding: 92 92 120
Width: 116
VWidth: 942
Flags: HW
LayerCount: 2
Fore
SplineSet
116 88 m 5
 6 88 l 5
 6 198 l 5
 116 198 l 5
 116 88 l 5
116 201 m 1
 6 201 l 1
 6 311 l 1
 116 311 l 1
 116 201 l 1
116 314 m 1
 6 314 l 1
 6 424 l 1
 116 424 l 1
 116 314 l 1
116 427 m 1
 6 427 l 1
 6 537 l 1
 116 537 l 1
 116 427 l 1
116 539 m 1
 6 539 l 1
 6 650 l 1
 116 650 l 1
 116 539 l 1
116 653 m 1
 6 653 l 1
 6 763 l 1
 116 763 l 1
 116 653 l 1
EndSplineSet
EndChar

StartChar: bracketright
Encoding: 93 93 121
Width: 116
VWidth: 942
Flags: HW
LayerCount: 2
Fore
SplineSet
116 88 m 5
 6 88 l 5
 6 198 l 5
 116 198 l 5
 116 88 l 5
116 201 m 1
 6 201 l 1
 6 311 l 1
 116 311 l 1
 116 201 l 1
116 314 m 1
 6 314 l 1
 6 424 l 1
 116 424 l 1
 116 314 l 1
116 427 m 1
 6 427 l 1
 6 537 l 1
 116 537 l 1
 116 427 l 1
116 539 m 1
 6 539 l 1
 6 650 l 1
 116 650 l 1
 116 539 l 1
116 653 m 1
 6 653 l 1
 6 763 l 1
 116 763 l 1
 116 653 l 1
EndSplineSet
EndChar

StartChar: asciicircum
Encoding: 94 94 122
Width: 116
VWidth: 942
Flags: HW
LayerCount: 2
Fore
SplineSet
116 88 m 5
 6 88 l 5
 6 198 l 5
 116 198 l 5
 116 88 l 5
116 201 m 1
 6 201 l 1
 6 311 l 1
 116 311 l 1
 116 201 l 1
116 314 m 1
 6 314 l 1
 6 424 l 1
 116 424 l 1
 116 314 l 1
116 427 m 1
 6 427 l 1
 6 537 l 1
 116 537 l 1
 116 427 l 1
116 539 m 1
 6 539 l 1
 6 650 l 1
 116 650 l 1
 116 539 l 1
116 653 m 1
 6 653 l 1
 6 763 l 1
 116 763 l 1
 116 653 l 1
EndSplineSet
EndChar

StartChar: grave
Encoding: 96 96 123
Width: 116
VWidth: 942
Flags: HW
LayerCount: 2
Fore
SplineSet
116 88 m 5
 6 88 l 5
 6 198 l 5
 116 198 l 5
 116 88 l 5
116 201 m 1
 6 201 l 1
 6 311 l 1
 116 311 l 1
 116 201 l 1
116 314 m 1
 6 314 l 1
 6 424 l 1
 116 424 l 1
 116 314 l 1
116 427 m 1
 6 427 l 1
 6 537 l 1
 116 537 l 1
 116 427 l 1
116 539 m 1
 6 539 l 1
 6 650 l 1
 116 650 l 1
 116 539 l 1
116 653 m 1
 6 653 l 1
 6 763 l 1
 116 763 l 1
 116 653 l 1
EndSplineSet
EndChar

StartChar: braceleft
Encoding: 123 123 124
Width: 116
VWidth: 942
Flags: HW
LayerCount: 2
Fore
SplineSet
116 88 m 5
 6 88 l 5
 6 198 l 5
 116 198 l 5
 116 88 l 5
116 201 m 1
 6 201 l 1
 6 311 l 1
 116 311 l 1
 116 201 l 1
116 314 m 1
 6 314 l 1
 6 424 l 1
 116 424 l 1
 116 314 l 1
116 427 m 1
 6 427 l 1
 6 537 l 1
 116 537 l 1
 116 427 l 1
116 539 m 1
 6 539 l 1
 6 650 l 1
 116 650 l 1
 116 539 l 1
116 653 m 1
 6 653 l 1
 6 763 l 1
 116 763 l 1
 116 653 l 1
EndSplineSet
EndChar

StartChar: braceright
Encoding: 125 125 125
Width: 116
VWidth: 942
Flags: HW
LayerCount: 2
Fore
SplineSet
116 88 m 5
 6 88 l 5
 6 198 l 5
 116 198 l 5
 116 88 l 5
116 201 m 1
 6 201 l 1
 6 311 l 1
 116 311 l 1
 116 201 l 1
116 314 m 1
 6 314 l 1
 6 424 l 1
 116 424 l 1
 116 314 l 1
116 427 m 1
 6 427 l 1
 6 537 l 1
 116 537 l 1
 116 427 l 1
116 539 m 1
 6 539 l 1
 6 650 l 1
 116 650 l 1
 116 539 l 1
116 653 m 1
 6 653 l 1
 6 763 l 1
 116 763 l 1
 116 653 l 1
EndSplineSet
EndChar

StartChar: asciitilde
Encoding: 126 126 126
Width: 116
VWidth: 942
Flags: HW
LayerCount: 2
Fore
SplineSet
116 88 m 1
 6 88 l 1
 6 198 l 1
 116 198 l 1
 116 88 l 1
116 201 m 1
 6 201 l 1
 6 311 l 1
 116 311 l 1
 116 201 l 1
116 314 m 1
 6 314 l 1
 6 424 l 1
 116 424 l 1
 116 314 l 1
116 427 m 1
 6 427 l 1
 6 537 l 1
 116 537 l 1
 116 427 l 1
116 539 m 1
 6 539 l 1
 6 650 l 1
 116 650 l 1
 116 539 l 1
116 653 m 1
 6 653 l 1
 6 763 l 1
 116 763 l 1
 116 653 l 1
EndSplineSet
EndChar
